<?xml version="1.0" encoding="UTF-8"?>
<svg id="Layer_2" data-name="Layer 2" xmlns="http://www.w3.org/2000/svg" viewBox="0 0 612.52 605.26">
  <defs>
    <style>
      .cls-1 {
        font-family: Texta-It, Texta;
        font-size: 30px;
        font-style: italic;
      }

      .cls-2 {
        font-family: BalooBhaijaan-Regular, 'Baloo Bhaijaan';
        font-size: 72.24px;
      }

      .cls-2, .cls-3 {
        fill: #032698;
      }

      .cls-4 {
        letter-spacing: .05em;
      }

      .cls-5 {
        letter-spacing: .05em;
      }

      .cls-6 {
        letter-spacing: .03em;
      }

      .cls-7 {
        letter-spacing: .02em;
      }

      .cls-8 {
        letter-spacing: .05em;
      }

      .cls-9 {
        letter-spacing: .02em;
      }

      .cls-10 {
        letter-spacing: .02em;
      }

      .cls-11 {
        letter-spacing: .02em;
      }

      .cls-12 {
        fill: #243dff;
      }

      .cls-13 {
        letter-spacing: .01em;
      }

      .cls-14 {
        letter-spacing: .04em;
      }

      .cls-15 {
        letter-spacing: .04em;
      }

      .cls-16 {
        letter-spacing: .03em;
      }

      .cls-17 {
        letter-spacing: .02em;
      }

      .cls-18 {
        letter-spacing: .03em;
      }

      .cls-19 {
        letter-spacing: 0em;
      }

      .cls-20 {
        letter-spacing: .03em;
      }

      .cls-21 {
        letter-spacing: .03em;
      }

      .cls-22 {
        letter-spacing: .01em;
      }

      .cls-23 {
        letter-spacing: .03em;
      }

      .cls-24 {
        letter-spacing: .04em;
      }
    </style>
  </defs>
  <g id="Layer_1-2" data-name="Layer 1">
    <g>
      <path class="cls-3" d="M306.06,0C195.69,0,105.9,89.79,105.9,200.16c0,64.74,30.89,122.39,78.71,159v-60.95c-21.7-26.82-34.71-60.95-34.71-98.05,0-86.11,70.05-156.16,156.16-156.16s156.16,70.05,156.16,156.16-70.05,156.16-156.16,156.16c-10.36,0-20.49-1.01-30.29-2.95v44.66c9.88,1.51,19.99,2.29,30.29,2.29,110.37,0,200.16-89.79,200.16-200.16S416.43,0,306.06,0Z"/>
      <path class="cls-12" d="M401.37,218.11v.16c0,24.21-19.63,43.84-43.84,43.84h-39.25c-35.86,0-64.93,29.07-64.93,64.93v66.23c-15.49-4.22-30.24-10.27-44-17.9v-56.33c0-55.74,45.19-100.93,100.93-100.93h91.09Z"/>
      <path class="cls-3" d="M209.35,205.15l.17-3.04c2.98-52.54,46.45-93.62,99.07-93.62h92.77v1.74c0,23.34-18.92,42.26-42.26,42.26h-47.58c-40.01,0-77.62,19.09-101.25,51.38l-.93,1.27Z"/>
      <text class="cls-2" transform="translate(0 494.06)"><tspan class="cls-6" x="0" y="0">FUL</tspan><tspan class="cls-18" x="128.8" y="0">L</tspan><tspan class="cls-6" x="168.39" y="0">ANCE H</tspan><tspan class="cls-10" x="417.4" y="0">O</tspan><tspan class="cls-9" x="469.78" y="0">M</tspan><tspan class="cls-20" x="529.16" y="0">E</tspan><tspan class="cls-9" x="570.91" y="0">S</tspan><tspan class="cls-6" x="62.6" y="60">&amp; P</tspan><tspan class="cls-17" x="173.05" y="60">R</tspan><tspan class="cls-9" x="218.27" y="60">OPE</tspan><tspan class="cls-13" x="356.03" y="60">R</tspan><tspan class="cls-9" x="400.75" y="60">TI</tspan><tspan class="cls-20" x="466.56" y="60">E</tspan><tspan class="cls-9" x="508.32" y="60">S</tspan></text>
      <text class="cls-1" transform="translate(24.4 599.5)"><tspan class="cls-22" x="0" y="0">F</tspan><tspan class="cls-24" x="16.35" y="0">r</tspan><tspan class="cls-5" x="26.01" y="0">om </tspan><tspan class="cls-23" x="76.65" y="0">L</tspan><tspan class="cls-5" x="92.1" y="0">and</tspan><tspan class="cls-16" x="143.34" y="0"> </tspan><tspan class="cls-5" x="151.05" y="0">to </tspan><tspan class="cls-11" x="186.9" y="0">L</tspan><tspan class="cls-4" x="202.23" y="0">uxury -</tspan><tspan class="cls-7" x="298.41" y="0"> </tspan><tspan class="cls-19" x="305.88" y="0">W</tspan><tspan class="cls-5" x="330.33" y="0">e </tspan><tspan class="cls-15" x="353.76" y="0">M</tspan><tspan class="cls-5" x="376.71" y="0">a</tspan><tspan class="cls-21" x="393.93" y="0">k</tspan><tspan class="cls-8" x="407.97" y="0">e It </tspan><tspan class="cls-14" x="459.24" y="0">H</tspan><tspan class="cls-5" x="479.82" y="0">appen</tspan></text>
    </g>
  </g>
</svg>